<svg width="31" height="31" viewBox="0 0 31 31" fill="none" xmlns="http://www.w3.org/2000/svg">
<g clip-path="url(#clip0_323_2956)">
<path d="M23.7344 0H7.26562C3.25293 0 0 3.25293 0 7.26562V23.7344C0 27.7471 3.25293 31 7.26562 31H23.7344C27.7471 31 31 27.7471 31 23.7344V7.26562C31 3.25293 27.7471 0 23.7344 0Z" fill="#242938"/>
<path d="M12.7817 16.624C12.8755 14.9432 13.6946 13.4624 14.9304 12.4126C16.1423 11.3816 17.7735 10.7515 19.5534 10.7515C21.3314 10.7515 22.9626 11.3816 24.1754 12.4126C25.4103 13.4624 26.2294 14.9432 26.3241 16.6222C26.4178 18.3493 25.727 19.9536 24.5151 21.1429C23.2793 22.3526 21.5216 23.1117 19.5534 23.1117C17.5851 23.1117 15.8239 22.3526 14.589 21.1429C13.3761 19.9536 12.6871 18.3493 12.7817 16.624Z" fill="white"/>
<path d="M16.079 16.775C16.1271 15.9126 16.5474 15.1527 17.1815 14.6141C17.8033 14.085 18.6403 13.7617 19.5536 13.7617C20.4659 13.7617 21.3029 14.085 21.9251 14.6141C22.5587 15.1527 22.9791 15.9126 23.0276 16.774C23.0757 17.6602 22.7212 18.4834 22.0994 19.0937C21.4653 19.7144 20.5635 20.1039 19.5536 20.1039C18.5436 20.1039 17.6399 19.7144 17.0062 19.0937C16.384 18.4834 16.0305 17.6602 16.079 16.775Z" fill="#265787"/>
<path d="M10.5461 18.5177C10.552 18.8552 10.659 19.511 10.8197 20.0232C11.1576 21.1073 11.7304 22.1102 12.5273 22.994C13.3453 23.9026 14.3524 24.6323 15.5157 25.1503C16.7386 25.6944 18.0634 25.9717 19.4397 25.9694C20.8136 25.9676 22.1385 25.6849 23.3613 25.1367C24.5246 24.6135 25.5309 23.8807 26.3475 22.9717C27.144 22.0841 27.7159 21.0794 28.0545 19.9954C28.2234 19.4553 28.331 18.898 28.3754 18.3339C28.4177 17.7835 28.3999 17.2303 28.3224 16.6838C28.1708 15.612 27.8017 14.6063 27.2334 13.6897C26.7138 12.8473 26.0438 12.1099 25.2472 11.4891L25.249 11.4877L17.2101 5.28564C17.2028 5.28007 17.197 5.27413 17.1893 5.26917C16.6618 4.86229 15.7749 4.86375 15.1948 5.27147C14.6084 5.68379 14.5413 6.36555 15.0632 6.79568L15.0609 6.79798L18.4139 9.5376L8.19442 9.5485H8.18086C7.33611 9.54947 6.52417 10.1063 6.36348 10.8101C6.19831 11.5269 6.77193 12.1216 7.65022 12.1249L7.64889 12.128L12.8287 12.118L3.58559 19.2469C3.57384 19.2556 3.56113 19.2647 3.55023 19.2734C2.67836 19.9443 2.39645 21.0598 2.94561 21.7658C3.503 22.4837 4.68815 22.4851 5.56911 21.7699L10.6138 17.6215C10.6138 17.6215 10.5401 18.1815 10.5461 18.5177ZM23.5088 20.3931C22.4694 21.4571 21.0142 22.0605 19.4397 22.0637C17.8628 22.0664 16.4076 21.4685 15.3683 20.4063C14.8604 19.8886 14.4872 19.293 14.2571 18.6586C14.0308 18.034 13.9437 17.3674 14.0021 16.7056C14.0569 16.0531 14.2503 15.4305 14.559 14.8673C14.8622 14.3135 15.2797 13.8133 15.7954 13.3901C16.8058 12.5628 18.092 12.1148 19.4374 12.113C20.7841 12.1112 22.0695 12.5549 23.0808 13.3795C23.5955 13.801 24.0127 14.2995 24.3159 14.8522C24.6287 15.4189 24.8191 16.0449 24.875 16.6898C24.9324 17.3512 24.8451 18.0171 24.619 18.6413C24.3884 19.2775 24.0166 19.8731 23.5088 20.3931Z" fill="#EA7600"/>
</g>
<defs>
<clipPath id="clip0_323_2956">
<rect width="31" height="31" fill="white"/>
</clipPath>
</defs>
</svg>
