<svg width="31" height="31" viewBox="0 0 31 31" fill="none" xmlns="http://www.w3.org/2000/svg">
<g clip-path="url(#clip0_321_2950)">
<path d="M25.8535 0H5.14648C2.30416 0 0 2.30416 0 5.14648V25.0785C0 27.9208 2.30416 30.225 5.14648 30.225H25.8535C28.6958 30.225 31 27.9208 31 25.0785V5.14648C31 2.30416 28.6958 0 25.8535 0Z" fill="#330000"/>
<path d="M15.0221 18.1388H10.2184L9.24089 21.175C9.22759 21.2304 9.19538 21.2794 9.14982 21.3136C9.10426 21.3478 9.0482 21.365 8.99131 21.3622H6.55818C6.41952 21.3622 6.37096 21.2859 6.41262 21.1334L10.5718 9.15501C10.6134 9.03028 10.655 8.88824 10.6966 8.72876C10.751 8.45121 10.7789 8.16931 10.7797 7.88655C10.7769 7.86678 10.7787 7.84661 10.785 7.82765C10.7914 7.8087 10.802 7.79147 10.8161 7.77734C10.8302 7.7632 10.8475 7.75255 10.8664 7.74622C10.8854 7.73989 10.9055 7.73806 10.9253 7.74088H14.2319C14.3288 7.74088 14.3842 7.77563 14.3983 7.84502L19.1189 21.1542C19.1605 21.293 19.1189 21.3624 18.9941 21.3622H16.2906C16.2442 21.3674 16.1975 21.3554 16.1592 21.3287C16.1209 21.3019 16.0937 21.2621 16.0827 21.2167L15.0221 18.1388ZM10.967 15.5186H14.2527L14.2059 15.364L14.1307 15.1191L14.077 14.9472L13.9914 14.6764L13.8094 14.1064L13.6493 13.6011L13.2336 12.2848C13.1301 11.9576 13.0308 11.6291 12.9357 11.2993L12.8597 11.0317L12.7708 10.7153L12.6351 10.2249L12.6097 10.1325H12.589C12.485 10.6316 12.3582 11.1258 12.2093 11.6135L11.9007 12.6059L11.7309 13.1543L11.5596 13.7093C11.5286 13.8096 11.4978 13.9088 11.467 14.0068L11.3749 14.2971L11.2834 14.5807L11.1923 14.8573L11.1017 15.127C11.0717 15.2158 11.0417 15.3033 11.0118 15.3898L10.967 15.5186ZM21.9261 9.94527C21.714 9.95379 21.5025 9.91744 21.3054 9.8386C21.1083 9.75977 20.93 9.64022 20.7823 9.48778C20.635 9.32872 20.5206 9.14211 20.4456 8.93868C20.3707 8.73525 20.3367 8.51901 20.3455 8.30239C20.338 8.08795 20.3758 7.87432 20.4564 7.67547C20.537 7.47662 20.6587 7.29701 20.8135 7.14837C21.112 6.86181 21.5095 6.70145 21.9233 6.70068L21.9676 6.70117C22.4667 6.70117 22.8585 6.85011 23.1427 7.14825C23.2861 7.30315 23.3976 7.48482 23.4708 7.68287C23.5439 7.88091 23.5773 8.09144 23.5689 8.30239C23.5777 8.51987 23.5426 8.73688 23.4658 8.94054C23.389 9.14419 23.272 9.33033 23.1219 9.4879C22.9703 9.63733 22.7903 9.75491 22.5926 9.83373C22.3948 9.91255 22.1833 9.95101 21.9705 9.94684L21.9261 9.94527ZM20.4911 21.1542V11.2138C20.4911 11.0891 20.5463 11.0266 20.6575 11.0266H23.2155C23.3263 11.0266 23.3817 11.089 23.3819 11.2138V21.1542C23.3819 21.293 23.3264 21.3624 23.2155 21.3622H20.6783C20.5601 21.3622 20.4979 21.3 20.4917 21.1755L20.4911 21.1542Z" fill="#FF9A00"/>
</g>
<defs>
<clipPath id="clip0_321_2950">
<rect width="31" height="30.2734" fill="white"/>
</clipPath>
</defs>
</svg>
