<svg width="31" height="31" viewBox="0 0 31 31" fill="none" xmlns="http://www.w3.org/2000/svg">
<g clip-path="url(#clip0_321_2947)">
<path d="M25.8535 0H5.14648C2.30416 0 0 2.30416 0 5.14648V25.0785C0 27.9208 2.30416 30.225 5.14648 30.225H25.8535C28.6958 30.225 31 27.9208 31 25.0785V5.14648C31 2.30416 28.6958 0 25.8535 0Z" fill="#001E36"/>
<path d="M6.98035 21.1957V7.90714C6.98035 7.81026 7.022 7.76158 7.10519 7.76158L7.23682 7.76122L7.46182 7.7588L7.77448 7.75262L8.82194 7.73046L9.94508 7.70963C10.3401 7.70285 10.7317 7.69922 11.1199 7.69922C12.1735 7.69922 13.0607 7.83097 13.7818 8.09435C14.4323 8.31437 15.0255 8.67668 15.5183 9.15489C15.9361 9.56943 16.2589 10.0697 16.4645 10.6211C16.6591 11.1577 16.7576 11.7243 16.7558 12.2951C16.7558 13.4044 16.4992 14.3194 15.9862 15.0402C15.4845 15.7433 14.7847 16.2811 13.9761 16.5848L13.9067 16.6103C13.0623 16.9252 12.1272 17.0391 11.1017 17.0462L10.9423 17.0467L10.7058 17.0455L10.5865 17.0438L10.4536 17.0406L10.3734 17.0375L10.3247 17.0349L10.205 17.0306L10.0585 17.0276L9.83816 17.026L9.78912 17.0259V21.1749C9.79276 21.2003 9.79043 21.2263 9.78231 21.2506C9.77419 21.275 9.76051 21.2972 9.74234 21.3153C9.72417 21.3335 9.70202 21.3472 9.67765 21.3553C9.65327 21.3634 9.62734 21.3657 9.6019 21.3621H7.12602C7.02878 21.3621 6.98035 21.3069 6.98035 21.1957ZM9.78924 10.2571V14.5913C9.95521 14.6047 10.1216 14.6116 10.2881 14.6121H10.9745C11.4477 14.6105 11.9182 14.5401 12.3711 14.403L12.4614 14.3748C12.8734 14.2524 13.2416 14.0141 13.5221 13.6884C13.7827 13.3811 13.9177 12.9576 13.927 12.4179L13.9276 12.3575C13.9385 11.9552 13.8339 11.5582 13.626 11.2137C13.4075 10.8805 13.0916 10.6227 12.7214 10.4754C12.238 10.2875 11.7216 10.1991 11.2032 10.2155L10.9395 10.2163L10.7731 10.2177L10.6144 10.2198L10.3903 10.2241L10.2269 10.2287L10.142 10.2319L10.0285 10.2372L9.93188 10.2432L9.87679 10.2475L9.8292 10.2521L9.80825 10.2545L9.78924 10.2571ZM24.7964 13.8032C24.4336 13.6168 24.0488 13.4767 23.6511 13.3864L23.559 13.3665C23.1215 13.2661 22.6748 13.2108 22.2259 13.2015L22.1138 13.2001C21.8507 13.193 21.5879 13.2246 21.334 13.2937C21.1723 13.3297 21.0285 13.4218 20.9283 13.5536C20.8605 13.6591 20.8245 13.7818 20.8244 13.9072C20.8282 14.0288 20.872 14.1457 20.9491 14.2399C21.0595 14.3689 21.1922 14.4771 21.3409 14.5592L21.3859 14.583C21.6824 14.7427 21.9879 14.885 22.3009 15.0093C22.9988 15.2429 23.6657 15.5607 24.2868 15.9555C24.71 16.2226 25.0602 16.5906 25.3059 17.0266C25.5125 17.4393 25.616 17.8959 25.6075 18.3574C25.6199 18.9668 25.4457 19.5655 25.1083 20.0732C24.7471 20.5884 24.2454 20.989 23.6629 21.2272C23.053 21.4953 22.3039 21.6337 21.4158 21.6428L21.3235 21.6433C20.773 21.6489 20.2232 21.6007 19.682 21.4994L19.5662 21.4769C19.1106 21.3933 18.667 21.2536 18.2457 21.0609C18.2034 21.0391 18.1676 21.0064 18.142 20.9662C18.1164 20.926 18.102 20.8797 18.1001 20.8321V18.5654C18.0977 18.5434 18.1012 18.5212 18.1103 18.501C18.1195 18.4809 18.134 18.4636 18.1522 18.451C18.1701 18.4409 18.1906 18.4365 18.211 18.4384C18.2314 18.4402 18.2508 18.4483 18.2665 18.4614C18.764 18.7548 19.3043 18.9688 19.8677 19.0957C20.3644 19.2202 20.8739 19.2865 21.3859 19.2933C21.871 19.2933 22.228 19.2309 22.4569 19.1061C22.5602 19.0588 22.6476 18.9826 22.7085 18.8866C22.7694 18.7907 22.8012 18.6791 22.8 18.5654C22.8 18.3855 22.696 18.2121 22.4881 18.0456C22.4009 17.9758 22.2758 17.8999 22.1131 17.8179L22.0352 17.7797L21.9521 17.7406L21.9085 17.7207L21.8172 17.6802C21.8014 17.6733 21.7855 17.6665 21.7696 17.6597L21.6703 17.618L21.6186 17.5968L21.5114 17.5538L21.4557 17.532L21.3402 17.4876L21.2195 17.4424C20.5665 17.2151 19.9474 16.9003 19.379 16.5066C18.9725 16.2239 18.6378 15.85 18.4017 15.4148C18.1972 15.005 18.0938 14.5522 18.1001 14.0943C18.099 13.5441 18.2501 13.0043 18.5368 12.5346C18.8638 12.0175 19.3331 11.6058 19.8886 11.3493C20.4985 11.0446 21.2609 10.892 22.176 10.8917C22.712 10.8874 23.2475 10.9257 23.7774 11.0062C24.1611 11.0548 24.5362 11.1563 24.8922 11.3077C24.9494 11.3242 24.9956 11.3664 25.0169 11.4221C25.0311 11.4729 25.038 11.5253 25.0377 11.5781V13.6785C25.0408 13.7281 25.0169 13.7757 24.9754 13.8032C24.9476 13.817 24.9169 13.8242 24.8859 13.8242C24.8548 13.8242 24.8242 13.817 24.7964 13.8032Z" fill="#31A8FF"/>
</g>
<defs>
<clipPath id="clip0_321_2947">
<rect width="31" height="30.2734" fill="white"/>
</clipPath>
</defs>
</svg>
