<svg width="31" height="31" viewBox="0 0 31 31" fill="none" xmlns="http://www.w3.org/2000/svg">
<g clip-path="url(#clip0_321_2953)">
<path d="M25.8535 0H5.14648C2.30416 0 0 2.30416 0 5.14648V25.0785C0 27.9208 2.30416 30.225 5.14648 30.225H25.8535C28.6958 30.225 31 27.9208 31 25.0785V5.14648C31 2.30416 28.6958 0 25.8535 0Z" fill="#49021F"/>
<path d="M11.258 7.9071V21.154C11.258 21.2928 11.1956 21.3621 11.0708 21.3621H8.55445C8.4434 21.3621 8.38794 21.2927 8.38818 21.154V7.9071C8.38818 7.7963 8.45055 7.74084 8.57527 7.74072H11.0916C11.1128 7.73772 11.1343 7.73937 11.1548 7.74555C11.1752 7.75173 11.1941 7.76229 11.2101 7.7765C11.226 7.79071 11.2387 7.80823 11.2472 7.82783C11.2557 7.84744 11.2598 7.86866 11.2593 7.89003L11.258 7.9071ZM18.8368 21.5687L18.7028 21.57C17.7457 21.5846 16.7973 21.3857 15.9266 20.9878C15.1155 20.6124 14.4375 19.9996 13.9822 19.2305C13.5222 18.4665 13.2867 17.5142 13.2755 16.3739L13.2752 16.2879C13.2674 15.3334 13.5113 14.3938 13.9824 13.5636C14.4545 12.7407 15.1432 12.063 15.9735 11.604L16.0411 11.5672C16.942 11.0681 18.0304 10.8186 19.306 10.8186L19.3329 10.8187L19.3926 10.82L19.4602 10.8227L19.5356 10.8265L19.6188 10.8318L19.7097 10.8384L19.9152 10.8552L19.9714 10.8601V6.76349C19.9714 6.66662 20.0131 6.61782 20.0961 6.61782H22.7165C22.7334 6.61539 22.7507 6.61694 22.7669 6.62234C22.7832 6.62775 22.7979 6.63687 22.81 6.64897C22.8222 6.66108 22.8313 6.67584 22.8367 6.69208C22.8421 6.70832 22.8436 6.7256 22.8412 6.74254V19.033C22.8421 19.2897 22.8525 19.5464 22.8725 19.8024L22.8921 20.0705L22.9094 20.3201L22.9244 20.551C22.927 20.5942 22.9164 20.6372 22.8942 20.6743C22.8719 20.7114 22.839 20.7409 22.7997 20.759C22.1237 21.0409 21.4196 21.25 20.6993 21.3828C20.0847 21.4962 19.4618 21.5584 18.8369 21.5687H18.8368ZM19.9714 18.9913V13.3141C19.859 13.2836 19.7443 13.2628 19.6283 13.2517C19.4867 13.2374 19.3444 13.2305 19.202 13.2309C18.6973 13.2259 18.1986 13.3399 17.7463 13.5636C17.3057 13.7826 16.9295 14.1123 16.6545 14.5203C16.3702 14.9361 16.228 15.4838 16.2282 16.1632C16.218 16.6164 16.2921 17.0677 16.4465 17.494C16.5722 17.8375 16.7708 18.1497 17.0288 18.4091C17.2758 18.6477 17.5748 18.8256 17.9023 18.9289C18.2482 19.0409 18.6097 19.0971 18.9732 19.0954C19.1672 19.0954 19.3474 19.0884 19.5139 19.0745C19.6467 19.0645 19.7783 19.0426 19.9072 19.0091L19.9714 18.9913Z" fill="#FF3366"/>
</g>
<defs>
<clipPath id="clip0_321_2953">
<rect width="31" height="30.2734" fill="white"/>
</clipPath>
</defs>
</svg>
